<?xml version="1.0" encoding="utf-8"?>
<!-- Generator: Adobe Illustrator 19.0.0, SVG Export Plug-In . SVG Version: 6.00 Build 0)  -->
<svg version="1.1" id="图层_1" xmlns="http://www.w3.org/2000/svg" xmlns:xlink="http://www.w3.org/1999/xlink" x="0px" y="0px"
	 viewBox="-90 339.8 413.5 162.1" style="enable-background:new -90 339.8 413.5 162.1;" xml:space="preserve">
<style type="text/css">
	.st0{fill:red;}
</style>
<path class="st0" d="M-9.6,377.9c-25.8,0-46.6,20.9-46.6,46.6s20.9,46.6,46.6,46.6S37,450.2,37,424.5C37,398.8,16.1,377.9-9.6,377.9
	z M14.5,408.2c-8.4,0-17.1,4.6-17.1,15.6c0,12.7,9.9,16.5,15.5,14.8c6.5-2,7.1-10.4,7.1-10.4s-3.1,6.6-9.5,4.7
	c-5.3-1.6-6.1-6.3-5.4-9.7c0.7-3.5,4.4-7.4,10.7-6.4c7.9,1.2,11,9.7,10.7,14.5c-0.8,10.5-5.2,18.7-12.2,25.6
	c-8.2,8-18.3,11.5-27.2,10.9c-0.1,0-0.3,0-0.5,0c11.5-0.5,20.2-9.8,20.2-19.1c0-8.4-4.6-17.1-15.6-17.1c-12.8,0-16.5,9.9-14.8,15.5
	c2,6.5,10.4,7.1,10.4,7.1s-6.6-3.1-4.7-9.5c1.6-5.3,6.3-6.1,9.7-5.4c3.5,0.7,7.4,4.4,6.4,10.7c-1.2,7.9-9.7,11-14.5,10.7
	c-10.6-0.8-18.8-5.1-25.7-12.2c-8-8.1-11.4-18.1-10.9-27c0-0.2,0-0.4,0-0.6c0.5,11.5,9.8,20.1,19.1,20.1c8.4,0,17.1-4.6,17.1-15.6
	c0-12.8-9.9-16.5-15.5-14.8c-6.5,2-7.1,10.4-7.1,10.4s3.1-6.6,9.5-4.7c5.3,1.6,6.1,6.3,5.4,9.7c-0.7,3.5-4.4,7.4-10.7,6.4
	c-7.9-1.2-11-9.7-10.7-14.5c0.8-10.6,5.1-18.8,12.2-25.7c8.2-8,18.2-11.4,27.2-10.9c0.2,0,0.3,0,0.5,0c-11.5,0.5-20.2,9.8-20.2,19.1
	c0,8.4,4.6,17.1,15.6,17.1c12.8,0,16.5-9.9,14.8-15.5c-2-6.5-10.4-7.1-10.4-7.1s6.6,3.1,4.7,9.5c-1.6,5.3-6.3,6.1-9.7,5.4
	c-3.5-0.7-7.4-4.4-6.4-10.7c1.2-7.9,9.7-11,14.5-10.7c10.6,0.8,18.8,5.1,25.7,12.2c8,8.3,11.5,18.4,10.9,27.3c0,0.1,0,0.2,0,0.4
	C33.2,416.8,23.9,408.2,14.5,408.2z"/>
<path class="st0" d="M72.9,387c0,0,0.3,0.6,0.1,1.1c-0.3,0.6-0.4,0.8-0.9,1.3c-0.4,0.4,1.6-0.5,2.5-0.3c0.8,0.2,1.7,0.8,2.5,1.2
	c0.7,0.4,2.6,0.3,3.5-0.8c0.9-1,0.8-1.6,0.1-4.4c-0.5-2-3.2-3.8-4.8-4.1c-1.6-0.2-4.8,0.5-4.7,3.1C71.1,385.7,72.9,387,72.9,387z"/>
<path class="st0" d="M77.9,403.3c1.8-2.5,3.3-4.2,4.4-5.1c0.9-0.8-0.9-0.5-0.9-0.5s-2.6,2.5-5.9,6.1c-0.9,1-1.4,3-2.6,4.4
	c-1.7,2-4.2,2.8-6.8,5.7c-0.5,0.5-2.1,1-1.9-1.1s5.6-8.3,6.5-9.4c1.1-1.2,1.6-2.6,0.9-4c-0.7-1.4-3-2.7-3-2.7l-2.2-2.4l-0.5,3.4
	c0,0-0.7,1.9-1.3,4.6s-1.5,3.9-1.9,6.9c-0.1,0.9-0.6,2-0.4,2.9c0.2,0.8-0.3,2.3-0.5,3.5c-0.3,1.8-0.7,3.6-1.2,4.7
	c-1.1,2.4-1.7,2.6-2.2,3.7c-0.4,0.9-1.3,5.4,2.1,6c1.6,0.3,4.1-1.2,4.7-3.3c1.5-5.1,3.5-5.4,4.6-7.6c1.2-2.5,2.8-4.7,3.1-6.9
	c0.1-1,1.2-1.6,1.6-2.2C75.3,408.3,76.7,405,77.9,403.3z"/>
<path class="st0" d="M85.6,395c0.9-0.8,2.2-1.8,2.5-2.1c0.3-0.3,0.7-1-0.6-1.1c-0.6,0-2,1.4-2.3,2.2C84.9,394.8,84.6,395.9,85.6,395
	z"/>
<path class="st0" d="M109.6,406.8c0,0-0.3-0.7-0.7-1c0,0-0.6-0.3-1-0.3c-0.7,0-0.6,0.3-1.6-0.5c-0.5-0.4-0.5-1.4-0.3-3.6
	c0.1-1.6-0.3-2.7-0.8-2.9c-1.3-0.5-2-1.3-4.2-2c-0.6-0.2-1.7-0.7-1.4-1.7c0.4-1.2,1.6-1.3,1.7-3.3c0.1-1.1-0.4-1.4-1.1-2.2
	c-1-0.9,0.1-4.7-0.1-6.2c-0.2-1.8-3.1-2.7-4.8-2.2c-1.3,0.4-2.9,1.9-2.8,3.3c0.1,1.3,0.7,0.7,1.8,0.7c1.1,0,1,1,0.9,1.4
	c-0.3,0.7-0.4,1.4-1.9,2.6c-1.3,1.1-1.6,2.8-0.1,3.3c1,0.4,0.9-0.3,2.2,0.5c0.8,0.5,2.5,0.9,2.1,3.2c-0.1,0.5-4.8,0.3-6.7,4.1
	c-0.8,1.6-1.6,4.4-1.8,7.3c-0.3,3.5-5,5.4-7.3,7.2c-3.2,2.5-6.3,6.4-7.9,7.6c-1.6,1.1-1.4,0.4-2.7,2.1c-1,1.3,0.3,4.1,5.7,4.4
	c2.6,0.1,3.6-1.3,6.2-1.9c2.6-0.5,6.7-0.2,11.8,2.1c0.3,0.1,0.9,0.8,1.2,0.9c3.2,1.4,4,1.1,5.4,1.2c1.5,0.2,4.8-0.1,3.3-5.7
	c-1-3.9-0.4-11-0.3-12.1s0.5-0.9,1.5-1.9c1.3-1.3,2.2-0.7,4.4-0.7c1,0,1.3-0.4,1.3-1.3C111.7,408.5,110,407.1,109.6,406.8z
	 M94.6,421.7c-0.2,1-2.7,0.4-2.8,0.4c-2.8-0.4-6.4,0.5-7.5,0.1c-1.2-0.4-0.8-1.2-0.5-2.4c0.4-1.8,3.4-4.3,5.9-5.2
	c0.5-0.2,1.6-0.7,2.4-0.8c0.9-0.1,2.2-0.7,2.7-0.6c0.7,0.2-1.1,1.9-0.7,4C94.1,418.2,94.9,420.1,94.6,421.7z M100,413.3
	c-1.2,0.4-0.7-1.1-1.9-2.4c-1-1.1-1.3-1.8-0.7-1.9c0.6-0.1,1.4-0.3,2.6,0c0.8,0.2,1,0.8,0.8,1.3C100.5,410.7,101.1,412.8,100,413.3z
	 M100,425.9c-0.9,0.2-2.5-0.5-2-1.6c0.4-0.8-0.4-0.8-0.5-1.8c-0.1-0.5,0-1.6,0.5-1.9c0.6-0.4,1.5-0.6,2.3-0.1s0.5,1.4,0.5,2.7
	C100.8,424,100.8,425.8,100,425.9z M101.6,406.5c-0.2,0.3-3.1,0.6-3.9-0.1c-1.5-1.2-2.6-0.7-2.9-3.7c-0.2-1.5,0.7-3.4,2.8-3.6
	c0.7-0.1,2.1,0.2,2.6,0.7c0.9,0.8,1.1,2.2,1.5,3.2C102.1,403.9,102.4,405.6,101.6,406.5z"/>
<path class="st0" d="M177.8,424.7c-2-0.2-9.2,0.1-11.5-0.1c-1-0.1-3.2-0.4-3.2-2.6s0.9-6.7,1.1-9.5c0.3-3.3-0.4-7.6-0.4-8.9
	c0.1-2-0.4-2.5-0.9-3.3c-0.7-1.1-1.3-1.6-2.2-1.8c-1.6-0.4-1.7-0.4-3.4,0c-1.8,0.4-1.3,0.3-2.6,0.7c-0.6,0.2-1.7,0.3-2-0.4
	c-0.4-1.1,0.2-3.7,2.1-4.2c1.9-0.4,3.6-0.6,4.7-1c1.3-0.5,1.2-1.8,0.8-2.6c-0.5-1.2-2.4-0.9-2.8-2.1c-0.4-1.1,1.9-2.4,2-4.2
	c0.1-1.4-1.1-2.8-2.4-3.2c-0.7-0.2-2.3-0.3-4,0.1c-1.5,0.3-2.3-0.2-2.7,0.1c-1,0.7-0.9,0.8-0.1,1.7c0.8,0.9,1.6,1.7,2.1,2.2
	s-0.1,1.7-0.8,2.3c-1.4,1.3-1.9,0.7-3.4,1.5c-1.6,0.8-3.5,3.2-3.8,4.2s-0.2,1,0.9,2c1.1,1,2.6,0.6,3.1,1.5c0.5,0.8,0,3.3-0.8,4.1
	c-0.9,1-1.5,1.7-1.7,3.2c-0.2,1.9-2.3,2.2-2.6,4c-0.3,1.8-0.6,5.4-0.4,8.2c0.2,2.6-0.2,4-0.5,5.9c-0.2,1-0.7,1.6-1.4,1.8
	c-0.7,0.2-5.2,0.1-5.6-0.8c-1.9-3.9-2.3-2.4-2.8-3.9c-0.6-1.5-1.5-0.3-1.7-4.4c-0.1-1.5-0.6-3.4-1.8-5.3c-1.3-2-2.6-7.3-2.1-8.5
	s2-0.1,3.6-1.2c0.7-0.5,1-1,0.9-2.3c-0.2-2.5-1-3.9-2.6-5.2c-1.6-1.2-4.7-2.1-5-1.6s-0.2,1.5,0.2,1.8c1.5,1.2,2.7,6.1,2.1,7.1
	c-0.6,1.1-0.5,1.3-0.4,2.9c0,2,0,3.4,0.4,4.8c0.5,1.8,0.1,4,0.3,5c0.7,3.4,1.3,2.2,1.9,4.7c0.4,1.4,0.6,1.4,0.6,2.4
	c0,0.7,0,1.2-0.7,1.7c-0.5,0.4-1.3,0.3-2.2,0.2c-0.9-0.1-1.9-0.2-2.7,0c-2,0.6-4.9,3.7-5,4.9c-0.1,0.9,0.1,1.4,1.3,1.8
	c1.3,0.5,3.3,0.5,4.9,0.5c2.8-0.1,2.5-1.2,5-1.2c2.5,0,10-1.8,14.2-1.5c1,0.1,3,1.1,5.6,1.4c4.4,0.5,25.6-0.1,27.6-0.7
	c1.9-0.5,2.7-0.2,3.3-1.4C180.4,425.1,179.9,424.9,177.8,424.7z M155.2,402.7c0.2-0.8,0.4-1.3,1.3-1.3c0.9,0,0.9-0.1,1.8,0.2
	c1.2,0.4,1.1,2,1.1,2.9c0,1,0.2,1.5-1.1,2c-1.4,0.4-2.2-0.8-2.6-1.7C155.2,404.1,155,403.5,155.2,402.7z M151.5,403.7
	c1.1,0.2,1,2,0.9,2.7c0,0.4-1,1.1-2.2,0.7c-0.7-0.3-1.2-0.8-1.3-2C148.9,403.8,150.4,403.5,151.5,403.7z M151.9,409.9
	c1.5-0.4,1.4,1,0.4,1.8c-0.7,0.6-0.7,1.3-2.1,1.4c-1.4,0.1-1.6,0-1.6-0.9C148.6,411.6,150.3,410.3,151.9,409.9z M157.7,424.4
	c-1.1,0.5-2,0.2-4.9,0.3c-2.9,0.1-3.2,0-4.7-1.2c-1.6-1.2-1.3-3.2-1.3-3.2s0.3-2,4.1-1.7c2.1,0.2,2,0.7,2.8,1.1
	c0.7,0.4-0.3,0.7,1.3,1.5c1,0.5,2.1-0.3,3.4,0.8C159.1,422.6,158.9,423.7,157.7,424.4z M159.5,417.9c-0.9,0.2-1.8-0.8-1.9-2.2
	c-0.1-1.4,0.8-2,1.7-1.5c0.8,0.4,0.7,1.7,0.8,2.5C160.1,417.2,160.1,417.8,159.5,417.9z M160.3,409.9c-0.3,0.5-0.9,0.5-2,0.4
	c-0.6-0.1-0.7-0.2-0.7-0.8c0-0.6,1.5-1.1,2-0.8C160.3,409,160.8,409.2,160.3,409.9z"/>
<path class="st0" d="M196.9,394.4c2-0.8,2-0.7,4.1-0.5c2.5,0.3,3.6-1.8,3.2-4.1c-0.4-2.4-2.1-3.7-2.9-4.4c-1.4-1.3-3-1.1-3.9-1.5
	c-2.7-1.1-2.8-2-2.8-2c-0.8-0.1-2.8,0.8-3.8,2.7c-0.6,1.2-1.2,2,0.6,3.4s3.7,0.9,4.7,1.9c0.9,0.8,1.1,1.5,0.7,2.1
	c-0.8,1.3-2.2,0.7-4.1,3.1c-1,1.4-3.7,5.5-4.2,6.3s-0.5,0.8-1.9,1.4c-1.5,0.6-3.6,0.4-4.6,1.2c-1,0.8-1.2,2.7-0.2,3.4
	c1,0.6,1.8,1.1,4.8,1.8c0.9,0.2,2.7,0.7,2.7,2.2s0.2,4.7,0.1,6.3c-0.1,1.6-1.2,5.4-1.4,7.2c-0.2,1.8,0.5,3.4,0.9,3.8
	c0.9,0.8,2.7,1.1,4.1-0.8c1.5-1.8,2.2-4.9,3.1-6.4c0.9-1.4,1.3-3.3,2.1-4.5c1-1.5,2.1-2.4,2.3-3c0.3-0.6,1.3-1.3,0.1-1.2
	c-0.7,0.1-1.1,1.2-2.1,2.3c-1.1,1.3-1.4,2.1-2.1,3.3c-0.9,1.5-2.4,2.1-3.4,2c-1-0.2-1.6-1.4-1.3-3.6c0.1-0.6-0.1-1.6,0.3-2.9
	c0.5-1.5,2-3.4,1.9-5.2c0-0.6,1.4-1,0.9-0.8c0.9-0.3,1.9-0.6,2.5-1.3c0.9-1.1,1.2-3.3,0-3.8c-1.8-0.8-3.1-0.2-3.9-0.5
	c-0.8-0.3-1.7-1.1-1.5-3.2C192.2,397.6,193.7,395.6,196.9,394.4z"/>
<path class="st0" d="M203.3,409.7c-0.3,0-0.6,0.4-1,1c-0.3,0.5-0.4,0.7-0.1,1c0.3,0.3,0.4,0,0.6-0.2c0.4-0.4,0.5-0.6,0.8-1.1
	C203.9,410,203.9,409.6,203.3,409.7z"/>
<path class="st0" d="M229.6,415.3c-0.8-1-3-1.7-4.2-1.9c-2.2-0.5-1.6-1-1.6-1.3c0-0.9,0-0.8,0.1-1.9s1.5-1.1,3.4-2.5
	c1.4-1.1,2-1.2,2.1-2.5c0.1-1.6-3.3-3.2-4.3-4.3c-0.3-0.4-0.7-1.5-0.2-2.5c0.4-0.8,1.5-1.6,2.3-2.1c1.1-0.7,2.6-0.1,2.7-0.6
	c0.3-1.3-0.3-3.2-1.1-3.9c-1.2-1.1-1.3-1.1-2.9-1.2c-1.8-0.2-4.9,2.1-4.9,2.1s-5.1,1.4-7.7,3.4c-2,1.5-2.4,1.8-3.7,3.2
	c-1.3,1.4-0.4,2.2-1,3c-0.4,0.6-2,2.5-3.9,5c-1,1.4-0.5,2,0.7,0c0.4-0.7,0.7-0.9,1.9-2.2c1.1-1.2,1.4-2.1,2.5-3.7c0.7-1,2-2,3.1-2.3
	c1-0.3,1.8-0.4,2.7-0.4s1.2,0.3,1.5,1.1c0.2,0.7,0.2,7.4,0.1,11.7c0,1.8,0,3.6-0.1,3.7c-0.8,0.4-2.6,0.5-3.2-0.1
	c-0.8-0.7-1.3-0.6-2-3.1c-0.5-2-1.2-2.2-2.5-2.8c-1.4-0.6-2.3,0.3-2.9,1c-0.6,0.7,0.1,2,0.2,3.4c0.2,1.5,0.1,3.3,0,4.6
	c-0.1,1.3-1.2,2.5-1.3,3.3s-0.1,2.2,1.2,3.2c0.4,0.3,0.8,1,2.9,0.9c1,0,1.2-0.3,2.6-1.5c1.4-1.2,2.5-2.3,4.1-2.5
	c1.7-0.2,2.2-0.2,5.6-0.7c2-0.2,1.7-0.5,6.2-1.1c1.7,0,3.7-0.4,3.7-0.4c0.6-0.9,0.6-1.6,0.6-2.1
	C232.2,416.2,230.3,416.1,229.6,415.3z"/>
<path class="st0" d="M300.8,410.4c-0.1-0.1-0.9-0.2-1.3-0.3c-0.9-0.3-5.8-0.7-7.6-0.8c-1.8-0.1-7.1-0.8-8.4-0.8
	c-1.4-0.1-3.5,0.3-5.3-0.7c-3.3-1.8-6.2-4-7.2-4.8c-0.9-0.7,0.7-2.5,2.1-3c1.4-0.5,2.5-1.2,2.6-2.4c0.1-1.2-0.4-2.1-1.1-2.4
	c-0.7-0.2-0.4,0-1.7-0.1c-1.3-0.1-1.5-0.3-1.5-1c0-1.2,0.8-1.4,1.4-1.6c0.6-0.2,1.1-0.9,1.6-1.6c1.4-1.7,0.1-2.6-0.8-2.9
	c-0.5-0.2-1.4-0.4-1-1.1c0.7-1,2.2-1,2.7-1.1s2.6-1,3.3-2.1c0.7-1,0.2-3.1-0.5-4c-0.7-1-2.4-0.6-3.1-1.1c-0.8-0.6-1.8-0.5-2.6-0.4
	c-0.8,0-1.6,0.8-1.6,0.8s1,1.8,1.5,2.5s0.8,0.9,0.8,1.6s-0.6,0.6-1.2,1c-0.6,0.4-0.8,0.1-1.4,0.2c-0.7,0.1-1.1,0-2-0.1
	c-0.9,0-0.8-0.4-1.7-0.8s-2.6-2.8-3.6-3c-0.9-0.2-1.3-0.6-1.8-0.5s-0.8,0.8-1.6,1.5c-0.8,0.7-2.5,1.7-2.9,3.3
	c-0.2,0.6,1,0.9,1.1,1.6s0,0.7-0.5,1c-0.6,0.3-1,0.1-2.1,0.3c-1.1,0.2-1.6,0.2-2.1-0.1c-1.2-0.7-0.9-0.7-1-1.8
	c-0.1-1.2-2.5,0.2-2.9,1.3c-0.2,0.5-0.6,1.4-0.3,2.1c0.2,0.6,0.9,1.4,1.5,2.1c0.2,0.2,1.5,0.7,1.7,0.9c0.5,0.6,0.3,1.3,1,1.9
	c0.9,0.8,1.3,0.8,1.3,1s0.4,0.4,0.2,0.7c-0.2,0.3-0.1,0.1-0.5,0.4c-0.3,0.3-0.7,0.6-0.6,1c0.1,0.4,2.4-0.4,2.8,0.2s0.3,1,0.3,1.8
	s0.1,0.9,0.1,1.6s-0.7,1.2-1.9,1.2c-1.9-0.1-2.2,0.5-3.1-0.3c-0.5-0.4-1-0.8-0.9-1.6c0.1-1.2,0.7-1.3,0.9-1.9s1.6-0.7,0.8-1
	c-0.8-0.2-1.7,0.3-2.3,0.9c-0.9,0.7-1,0.5-1.5,2.2s-0.5,0.9-0.6,2.2c-0.2,1.3,0,2.8,0.3,3.7c0.4,1.3,1.7,1.8,2.3,1.7
	c0.9,0,1.2-0.2,1.5,0.4s0.2,0.7-0.3,1.2c-0.4,0.4-0.6,0.3-1.4,0.8c-0.8,0.5-0.7,0.3-1.6,0.9c-0.9,0.6-1.9,0.6-3,1.2
	c-1.2,0.7-1.4,2.1-2.7,2.4c-1.6,0.3-1.8,1-3.5,0.4c-0.6-0.2-0.9,0.6-1.1,1.2c-0.2,0.7-0.4,0.9-0.2,2.1s0.7,1.8,1.3,2.4s1.6,1,3,0.9
	c2.7-0.2,2-1.7,2.9-2.2s0.3-0.9,2.3-1.4c1.3-0.3,3.2-3.1,4.8-3.3c1.2-0.1,1.2-0.1,1.7,0.3c0.6,0.4,0.4,1,1,1.9
	c0.6,0.9,0.9,1.2,2.1,1.6c0.9,0.3,1.3,0,1.6,0.7c0.3,0.8,0.4,0.8,0,1.4s-0.9,0.9-1.9,1.5c-0.7,0.4-3.7,2.7-4.4,3.9
	c-0.7,1.2-0.7,1.6-0.8,2.9c0,1.4,5.1,1.9,6.5,2s2.7-0.5,3.8-0.1s1.3,0.4,2.2,1.2c0.3,0.3,0.9,0.8,2.1,1c1.5,0.2,3.2-0.2,4-0.7
	c1.8-0.9,3.3-3.6,5.8-7.6c2.2-3.5,2-5.3,2-7c0-1-0.2-2.3-0.4-2.9c0.3,0.9-0.4-2.8,0.1-2.6c0.5,0.1,0.7,1.4,3.5,2
	c2.8,0.7,4.9,0.2,6.9,0c1.9-0.2,5.7-1.2,7.2-1.5s3.5-0.8,3.8-1.3C300,411.5,301.1,410.8,300.8,410.4z M262.2,396
	c0.1-0.7,1.4-1.1,2.3-0.9c0.8,0.2,1.9-0.4,2.1,0.9s0,1.2-0.5,2c-0.6,0.7-1,1.4-2.7,1c-0.6-0.1-1.1-0.9-1.2-1.7
	C262.1,396.8,262.1,396.7,262.2,396z M258.3,413.7c-1.1,0.1-1.5-0.6-1.4-1.2s0.1-0.9,1.1-1.8c1-0.7,3.9-4.4,3.9-4.4s2.5-2.3,2.8-2.1
	c0.3,0.2,1.2,0.1,2,0.7c0.9,0.6,1.2,2.6,2.7,3.1s1.9,0,2,0.6c0.1,0.8-0.7,0.8-1.4,1.4c-0.7,0.6-2.1,1.8-3.6,2
	c-2.5,0.3-4.1,1.2-5.1,1.4C260.2,413.7,259.4,413.6,258.3,413.7z M271.8,421.5c-0.3,1.2-0.5,1-1.4,1.9s-2.3,1.7-3.8,2.3
	c-1.6,0.7-0.9,0.6-2,1s-1.9-0.1-2.6-0.9c-0.6-0.8-0.4-0.3-0.6-1.3c-0.2-1,0.4-1.6,1.2-2.7c0.8-1.1,1.4-2.6,2.3-3.3
	c0.9-0.7,1.6-1.5,2.9-1.5c1.3,0,1.6-0.4,2.6,0.6c0.8,0.8,1,1.1,1.4,1.7C272.3,420.5,272.2,420.3,271.8,421.5z"/>
<g>
	<g>
		<path class="st0" d="M99.5,439.5c0,0,0,10.1,0,10.3c-0.2,0-10.8,0-11,0c0-0.2,0-10.3,0-10.3h-6v26.3h6c0,0,0-11.1,0-11.3
			c0.2,0,10.8,0,11,0c0,0.2,0,11.3,0,11.3h6.1v-26.4h-6.1V439.5z"/>
	</g>
	<g>
		<g>
			<g>
				<path class="st0" d="M124.1,439.5h-6.4l-9.6,26.3h6c0,0,2.2-6,2.2-6.1h9.4c0,0.1,2.2,6.1,2.2,6.1h6L124.1,439.5z M117.7,455.7
					c0.1-0.3,3.1-8.3,3.2-8.8c0.2,0.4,3.1,8.5,3.2,8.8H117.7z"/>
			</g>
		</g>
	</g>
	<g>
		<path class="st0" d="M136.9,439.5v26.3h6v-26.4h-6V439.5z"/>
	</g>
	<g>
		<path class="st0" d="M146.6,439.5v4.7c0,0,8.1,0,8.3,0c0,0.2,0,21.7,0,21.7h6c0,0,0-21.4,0-21.7c0.2,0,8.4,0,8.4,0v-4.7H146.6z"/>
	</g>
	<g>
		<g>
			<g>
				<path class="st0" d="M194.2,444.8c-1.2-2-2.9-3.6-5.2-4.7c-1.7-0.8-4-1.2-6.8-1.2c-1.7,0-3.3,0.3-4.8,0.8s-2.8,1.3-3.9,2.4
					c-1.1,1-1.9,2.1-2.5,3.3c-1,2.1-1.5,4.6-1.5,7.2c0,4.4,1.2,7.9,3.7,10.2c2.4,2.3,5.7,3.5,9.6,3.5c3.9,0,7.1-1.2,9.4-3.4
					c2.4-2.3,3.6-5.7,3.6-10.1C196,449.5,195.4,446.9,194.2,444.8z M187.9,459.5c-1.3,1.4-2.9,2.1-4.8,2.1c-2,0-3.7-0.7-5-2.1
					s-2-3.7-2-6.8c0-3.2,0.6-5.5,1.9-6.9c1.3-1.4,2.9-2.1,4.9-2.1c1.8,0,3.4,0.6,4.6,1.7c1.6,1.4,2.4,3.9,2.4,7.4
					C189.8,455.8,189.2,458.1,187.9,459.5z"/>
			</g>
		</g>
	</g>
	<g>
		<path class="st0" d="M218.1,439.5c0,0,0,16.8,0,17.4c-0.3-0.5-12-17.3-12-17.3h-6.4v26.2h6c0,0,0-17.4,0-18
			c0.3,0.5,12.4,18,12.4,18h5.9v-26.4h-5.9V439.5z"/>
	</g>
	<g>
		<path class="st0" d="M234.6,440.4c-2.1,1-3.8,2.5-5,4.6s-1.8,4.8-1.8,8.2c0,3.2,0.6,5.8,1.8,7.7c1.2,1.9,2.7,3.3,4.5,4.1
			c1.8,0.9,3.8,1.3,5.8,1.3c1.9,0,3.8-0.4,5.5-1.2c1.2-0.5,2.3-1.4,3.5-2.4c0,0.4,0,3.1,0,3.1h4.9v-13.6h-12.6v4.1c0,0,7.5,0,7.7,0
			c-0.2,0.8-0.5,1.5-0.7,1.9c-0.3,0.5-0.8,1-1.3,1.6c-0.6,0.5-1.4,1-2.3,1.3c-1,0.4-2,0.5-3,0.5c-1.3,0-2.6-0.3-3.7-1
			c-1.2-0.6-2-1.6-2.6-2.8c-0.6-1.2-0.9-3.1-0.9-5.4c0-3.4,0.7-5.7,2.1-7c1.4-1.3,3.3-1.9,5.5-1.9c1.9,0,3.4,0.5,4.6,1.5
			c0.8,0.7,1.5,1.7,2,3.1v0.1l4.8-1.5v-0.1c-0.5-1.5-1-2.7-1.7-3.5c-1-1.3-2.4-2.4-4.1-3.1c-1.7-0.8-3.6-1.1-5.8-1.1
			C239,439,236.7,439.4,234.6,440.4z"/>
	</g>
</g>
</svg>
